<svg width="20" height="10" viewBox="0 0 20 10" fill="none" xmlns="http://www.w3.org/2000/svg">
<path fill-rule="evenodd" clip-rule="evenodd" d="M6.26446 5.84955L9.30744 7.55955L6.26446 9.20084V7.91701C4.54384 7.67497 3.06329 7.26912 1.99027 6.75568C0.736272 6.15557 0 5.38214 0 4.5059C0 3.40553 1.18813 2.45577 3.10884 1.80965C4.88241 1.21313 7.31962 0.84375 10 0.84375C12.6804 0.84375 15.1176 1.21313 16.8911 1.80965C18.8119 2.45577 20 3.40553 20 4.5059C20 5.4204 19.196 6.22372 17.838 6.83576C16.5779 7.40355 14.8018 7.82975 12.753 8.03352C12.4957 8.05924 12.2654 7.87752 12.239 7.62707C12.2125 7.37735 12.3996 7.15371 12.6576 7.12799C14.6024 6.93499 16.2744 6.53572 17.4452 6.00853C18.4597 5.55129 19.0606 5.0283 19.0606 4.5053C19.0606 3.83467 18.115 3.18139 16.5864 2.66735C14.9114 2.10372 12.5831 1.75525 10 1.75525C7.41689 1.75525 5.08865 2.10372 3.41356 2.66735C1.885 3.18198 0.939424 3.83527 0.939424 4.5053C0.939424 5.00021 1.48177 5.4969 2.4052 5.93921C3.3637 6.39764 4.69774 6.76583 6.26509 6.99539L6.26446 5.84955Z" fill="#303133" fill-opacity="0.5"/>
</svg>
