<?xml version="1.0" encoding="UTF-8"?>
<svg id="Calque_2" data-name="Calque 2" xmlns="http://www.w3.org/2000/svg" viewBox="0 0 125.96 119.21">
  <defs>
    <style>
      .cls-1 {
        fill: #fff;
        stroke-width: 0px;
      }
    </style>
  </defs>
  <g id="Calque_1-2" data-name="Calque 1">
    <g>
      <path class="cls-1" d="m0,77.73c1.08,0,4.54-1.54,4.54-6.46V31.63c0-4.92-3.46-6.46-4.54-6.46v-1.23h21.93c11.08,0,18.85,6.85,18.85,15.31,0,7.08-5.16,13-13.47,14.77,5.16,1.31,9.08,12.7,11.47,17.24,1.08,2,3,6.46,6.31,6.46v1.23h-15.77v-1.23c.85,0,2.46-1.54,2.46-3.92,0-.77-.15-1.62-.54-2.54-1.77-4.16-5.54-14.01-10.46-16.62h-10.16v16.62c0,4.92,3.46,6.46,4.54,6.46v1.23H0v-1.23ZM10.62,25.17v28.24h8.77c9.77,0,15.39-6.31,15.39-14.16s-5.62-14.08-15.39-14.08h-8.77Z"/>
      <path class="cls-1" d="m66.56,44.33c9.31,0,16.93,7.77,16.93,17.31s-7.62,17.31-16.93,17.31-17.01-7.77-17.01-17.31,7.62-17.31,17.01-17.31Zm0,1.23c-6.31,0-11.39,7.39-11.39,16.16s5.08,16.01,11.39,16.01,11.39-7.16,11.39-16.01-5.16-16.16-11.39-16.16Z"/>
      <path class="cls-1" d="m125.96,44.33v1.23c-3.23,0-5.7,6.54-5.7,6.54l-15.7,35.17s-5.46,13.08-10.93,13.08c-2.62,0-3.85-1.46-3.85-2.92s1.31-3,3.77-3c6.93,0,9.7-7.16,9.7-7.16l3.69-8.31-12-26.86s-2.39-6.54-5.69-6.54v-1.23h14.7v1.23c-.85,0-3.16,1.85-3.16,4.54,0,.62.08,1.31.39,2l8.85,19.85,10-22.32c.39-.92.54-1.69.54-2.23,0-1.61-1.39-1.85-2.16-1.85v-1.23h7.54Z"/>
    </g>
    <g>
      <g>
        <line class="cls-1" x1="48.82" y1="18.17" x2="55.21" y2="25.92"/>
        <path class="cls-1" d="m48.82,18.17c.47.15.88.36,1.3.56l.79.97,1.6,1.94,1.6,1.94.8.97c.12.45.24.89.31,1.38-.46-.16-.88-.36-1.29-.56l-.8-.97-1.6-1.94-1.6-1.94-.8-.96c-.12-.44-.24-.89-.3-1.38,0,0,.06.49,0,0Z"/>
      </g>
      <g>
        <line class="cls-1" x1="58.5" y1="12.12" x2="62.87" y2="25.92"/>
        <path class="cls-1" d="m58.5,12.12c.44.49.8,1.01,1.16,1.53l.54,1.73,1.09,3.45,1.09,3.45.55,1.72c0,.63,0,1.27-.06,1.92-.43-.5-.79-1.02-1.16-1.53l-.55-1.72-1.09-3.45-1.09-3.45-.55-1.72c0-.63,0-1.26.07-1.92,0,0-.07.66,0,0Z"/>
      </g>
      <g>
        <line class="cls-1" x1="89.88" y1="18.17" x2="83.49" y2="25.92"/>
        <path class="cls-1" d="m89.88,18.17c-.06.49-.18.94-.3,1.38l-.8.96-1.6,1.94-1.6,1.94-.8.97c-.42.2-.83.4-1.29.56.07-.49.19-.93.31-1.38l.8-.97,1.6-1.94,1.6-1.94.79-.97c.41-.2.83-.4,1.3-.56,0,0-.47.15,0,0Z"/>
      </g>
      <g>
        <line class="cls-1" x1="80.2" y1="12.12" x2="75.83" y2="25.92"/>
        <path class="cls-1" d="m80.2,12.12c.07.66.07,1.29.07,1.92l-.55,1.72-1.09,3.45-1.09,3.45-.55,1.72c-.37.52-.73,1.03-1.16,1.53-.06-.65-.06-1.28-.06-1.92l.55-1.72,1.09-3.45,1.09-3.45.54-1.73c.36-.52.73-1.04,1.16-1.53,0,0-.44.49,0,0Z"/>
      </g>
      <g>
        <line class="cls-1" x1="69.18" y1="0" x2="69.52" y2="25.92"/>
        <path class="cls-1" d="m69.18,0c.28,1.08.48,2.15.69,3.23l.04,3.24.08,6.48.08,6.48.04,3.24c-.2,1.08-.35,2.16-.6,3.25-.27-1.08-.45-2.15-.68-3.23l-.04-3.24-.08-6.48-.08-6.48-.05-3.24c.17-1.08.35-2.16.6-3.25,0,0-.25,1.08,0,0Z"/>
      </g>
    </g>
    <g>
      <path class="cls-1" d="m32.47,119.12v-7.78h.67v7.17h4.06v.61h-4.73Z"/>
      <path class="cls-1" d="m42.72,119.21c-.99,0-1.75-.27-2.26-.8s-.77-1.31-.77-2.32v-4.74h.67v4.69c0,1.71.79,2.56,2.36,2.56s2.36-.85,2.36-2.56v-4.69h.67v4.74c0,1.02-.26,1.79-.77,2.32s-1.27.8-2.26.8Z"/>
      <path class="cls-1" d="m49.39,119.12v-7.78h.54l4.92,6.63v-6.63h.63v7.78h-.53l-4.93-6.64v6.64h-.63Z"/>
      <path class="cls-1" d="m59.16,119.12v-7.78h4.79v.58h-4.13v2.96h3.9v.58h-3.9v3.07h4.13v.58h-4.79Z"/>
      <path class="cls-1" d="m68.91,119.12v-7.17h-2.9v-.61h6.49v.61h-2.9v7.17h-.68Z"/>
      <path class="cls-1" d="m75.2,119.12v-7.78h.67v7.78h-.67Z"/>
      <path class="cls-1" d="m79.56,119.12v-7.78h4.79v.58h-4.13v2.96h3.9v.58h-3.9v3.07h4.13v.58h-4.79Z"/>
      <path class="cls-1" d="m87.57,119.12v-7.78h2.94c.83,0,1.47.19,1.9.57s.66.93.66,1.63c0,.58-.16,1.05-.47,1.41-.32.36-.77.59-1.35.7.32.12.6.4.84.86l1.41,2.6h-.74l-1.35-2.49c-.19-.35-.4-.58-.64-.7s-.55-.18-.95-.18h-1.58v3.37h-.67Zm.67-3.94h2.17c1.31,0,1.96-.54,1.96-1.63s-.65-1.62-1.96-1.62h-2.17v3.26Z"/>
    </g>
  </g>
</svg>