<?xml version="1.0" encoding="utf-8"?>
<!-- Generator: Adobe Illustrator 27.6.1, SVG Export Plug-In . SVG Version: 6.00 Build 0)  -->
<svg version="1.1" id="Calque_1" xmlns="http://www.w3.org/2000/svg" xmlns:xlink="http://www.w3.org/1999/xlink" x="0px" y="0px"
	 viewBox="0 0 86.69 86.69" style="enable-background:new 0 0 86.69 86.69;" xml:space="preserve">
<style type="text/css">
	.st0{fill:#F4EFEB;}
	.st1{fill:#1E1E1D;}
</style>
<circle class="st0" cx="43.34" cy="43.34" r="43.34"/>
<g>
	<g>
		<path d="M43.38,39.67c8.98,0,16.32,7.49,16.32,16.7s-7.35,16.7-16.32,16.7c-9.05,0-16.4-7.49-16.4-16.7S34.33,39.67,43.38,39.67z
			 M43.38,40.86c-6.08,0-10.98,7.12-10.98,15.58c0,8.53,4.9,15.43,10.98,15.43c6.01,0,10.98-6.9,10.98-15.43
			C54.36,47.98,49.39,40.86,43.38,40.86z"/>
	</g>
	<g>
		<g>
			<line class="st1" x1="24.35" y1="27.7" x2="30.26" y2="34.86"/>
			<path class="st1" d="M24.35,27.7c0.45,0.13,0.83,0.32,1.22,0.5l0.73,0.9l1.48,1.79l1.48,1.79l0.74,0.9
				c0.1,0.42,0.21,0.83,0.26,1.29c-0.44-0.14-0.83-0.32-1.22-0.5l-0.74-0.9l-1.48-1.79l-1.48-1.79L24.6,29
				C24.5,28.58,24.4,28.16,24.35,27.7C24.35,27.7,24.4,28.16,24.35,27.7z"/>
		</g>
		<g>
			<line class="st1" x1="33.3" y1="22.1" x2="37.35" y2="34.86"/>
			<path class="st1" d="M33.3,22.1c0.41,0.45,0.76,0.93,1.1,1.41l0.5,1.6l1.01,3.19l1.01,3.19l0.51,1.6
				c-0.01,0.59-0.02,1.18-0.08,1.78c-0.41-0.46-0.75-0.93-1.1-1.41l-0.51-1.6l-1.01-3.19l-1.01-3.19l-0.51-1.59
				C33.22,23.29,33.22,22.71,33.3,22.1C33.3,22.1,33.22,22.71,33.3,22.1z"/>
		</g>
		<g>
			<line class="st1" x1="62.34" y1="27.7" x2="56.42" y2="34.86"/>
			<path class="st1" d="M62.34,27.7c-0.05,0.46-0.15,0.88-0.26,1.29l-0.74,0.89l-1.48,1.79l-1.48,1.79l-0.74,0.9
				c-0.39,0.18-0.78,0.36-1.22,0.5c0.06-0.46,0.16-0.87,0.26-1.29l0.74-0.9l1.48-1.79l1.48-1.79l0.73-0.9
				C61.51,28.02,61.89,27.84,62.34,27.7C62.34,27.7,61.89,27.84,62.34,27.7z"/>
		</g>
		<g>
			<line class="st1" x1="53.39" y1="22.1" x2="49.34" y2="34.86"/>
			<path class="st1" d="M53.39,22.1c0.08,0.61,0.08,1.2,0.09,1.79l-0.51,1.59l-1.01,3.19l-1.01,3.19l-0.51,1.6
				c-0.35,0.48-0.69,0.95-1.1,1.41c-0.07-0.61-0.07-1.19-0.08-1.78l0.51-1.6l1.01-3.19l1.01-3.19l0.5-1.6
				C52.63,23.03,52.97,22.55,53.39,22.1C53.39,22.1,52.97,22.55,53.39,22.1z"/>
		</g>
		<g>
			<line class="st1" x1="43.19" y1="10.89" x2="43.5" y2="34.86"/>
			<path class="st1" d="M43.19,10.89c0.27,1,0.47,1.99,0.66,2.99l0.03,3l0.08,5.99l0.08,5.99l0.04,3c-0.2,1-0.34,2-0.58,3.01
				c-0.26-1-0.44-1.99-0.66-2.99l-0.04-3l-0.08-5.99l-0.08-5.99l-0.04-3C42.77,12.89,42.94,11.89,43.19,10.89
				C43.19,10.89,42.94,11.89,43.19,10.89z"/>
		</g>
	</g>
</g>
</svg>
